<svg width="32" height="32" viewBox="0 0 32 32" fill="none" xmlns="http://www.w3.org/2000/svg">
  <!-- Blue background circle -->
  <circle cx="16" cy="16" r="16" fill="#2563eb"/>
  
  <!-- White utensils icon -->
  <g fill="white">
    <!-- Fork -->
    <path d="M10 8v3c0 0.5 0.5 1 1 1s1-0.5 1-1V8h1v3c0 0.5 0.5 1 1 1s1-0.5 1-1V8h1v3c0 1.1-0.9 2-2 2v9c0 0.6-0.4 1-1 1s-1-0.4-1-1v-9c-1.1 0-2-0.9-2-2V8h1z"/>
    
    <!-- Knife -->
    <path d="M18 8v14c0 0.6 0.4 1 1 1s1-0.4 1-1V8c0-0.6-0.4-1-1-1s-1 0.4-1 1z"/>
    
    <!-- Spoon -->
    <path d="M22 8c0-1.1 0.9-2 2-2s2 0.9 2 2v2c0 1.1-0.9 2-2 2v10c0 0.6-0.4 1-1 1s-1-0.4-1-1V12c-1.1 0-2-0.9-2-2V8z"/>
  </g>
</svg>